<svg width="40" height="44" viewBox="0 0 40 44" fill="none" xmlns="http://www.w3.org/2000/svg">
<path fill-rule="evenodd" clip-rule="evenodd" d="M17.8732 0.465966C19.0674 -0.148737 20.4743 -0.155623 21.6743 0.447509L37.6128 8.45805C39.0814 9.19614 40 10.7217 40 12.3794L39.5 30.5C39.5 32.1287 38.929 34.2476 37.5 35L21.7462 43.5159C20.507 44.1683 19.0347 44.1609 17.8019 43.4962L2.5 35C1.09164 34.2406 0.5 32.6136 0.5 31L0 12.3582C0 10.7152 0.902478 9.20082 2.35093 8.45529L17.8732 0.465966ZM20.6726 2.47775C20.1103 2.19514 19.4539 2.1983 18.8941 2.48644L3.37184 10.4758C2.69006 10.8267 2.24719 11.5517 2.24719 12.3582V31.2611C2.24719 32.053 2.67448 32.7678 3.33799 33.1256L18.8608 41.4957C19.4389 41.8074 20.1259 41.8108 20.7068 41.505L36.6446 33.1133C37.3175 32.759 37.7528 32.0389 37.7528 31.2395V12.3794C37.7528 11.5656 37.302 10.8355 36.6111 10.4883L20.6726 2.47775Z" fill="black"/>
</svg>
