<svg width="40" height="44" viewBox="0 0 40 44" fill="none" xmlns="http://www.w3.org/2000/svg">
<path d="M34.8649 9.57667L20.576 2.48194L22.015 0.563383L37.7665 8.43915C39.1047 9.10825 39.95 10.476 39.95 11.9721V29.4782C39.95 32.4242 38.3209 35.1287 35.7166 36.506L23.5351 42.9481C21.1789 44.1941 18.3551 44.1765 16.0146 42.9012L4.19613 36.4613C1.64043 35.0687 0.05 32.3909 0.05 29.4804V13.3507H2.18847L2.29581 27.7487C2.31763 30.6753 3.92612 33.3596 6.49661 34.7589L15.9641 39.913C18.3355 41.204 21.1963 41.2201 23.5821 39.9559L33.3881 34.7599C36.022 33.3643 37.669 30.6275 37.669 27.6468V14.0998C37.669 12.1819 36.5827 10.4296 34.8649 9.57667Z" fill="#E62479" stroke="#E62479" stroke-width="0.1"/>
</svg>
