<svg width="84" height="92" viewBox="0 0 84 92" fill="none" xmlns="http://www.w3.org/2000/svg">
<path d="M74.6636 20.1059L43.0732 3.95962L45.7169 0.0641043L79.5177 16.7415C82.2317 18.0806 83.95 20.8445 83.95 23.8709V65.1833C83.95 68.1281 82.3223 70.8316 79.7197 72.2095L45.2763 90.4442C42.9185 91.6925 40.0917 91.6748 37.7496 90.3973L4.19296 72.0926C1.63903 70.6995 0.05 68.0226 0.05 65.1134V25.9095H4.65037L4.91492 61.4302C4.9367 64.3556 6.54378 67.0388 9.1125 68.4387L37.746 84.0435C40.0931 85.3226 42.922 85.3533 45.2962 84.1254L74.6981 68.919C77.3713 67.5365 79.05 64.7783 79.05 61.7687V27.2739C79.05 24.2504 77.3558 21.4819 74.6636 20.1059Z" fill="#E62479" stroke="#E62479" stroke-width="0.1"/>
</svg>
