<svg width="100" height="110" viewBox="0 0 100 110" fill="none" xmlns="http://www.w3.org/2000/svg">
<path fill-rule="evenodd" clip-rule="evenodd" d="M44.6829 1.16491C47.6686 -0.371842 51.1857 -0.389058 54.1858 1.11877L94.032 21.1451C97.7034 22.9904 100 26.8042 100 30.9484V78.0988C100 82.1705 97.7825 85.9294 94.21 87.8105L54.3654 108.79C51.2675 110.421 47.5867 110.402 44.5048 108.74L5.69768 87.8151C2.17677 85.9166 0 82.1865 0 78.1526V30.8954C0 26.7881 2.25619 23.002 5.87733 21.1382L44.6829 1.16491ZM51.6816 6.19438C50.2758 5.48786 48.6347 5.49574 47.2352 6.2161L8.42961 26.1894C6.72516 27.0667 5.61798 28.8792 5.61798 30.8954V78.1526C5.61798 80.1324 6.68619 81.9196 8.34499 82.814L47.1521 103.739C48.5973 104.519 50.3149 104.527 51.767 103.762L91.6115 82.7833C93.2938 81.8975 94.382 80.0973 94.382 78.0988V30.9484C94.382 28.9139 93.255 27.0889 91.5277 26.2207L51.6816 6.19438Z" fill="black"/>
</svg>
