<svg width="60" height="67" viewBox="0 0 60 67" fill="none" xmlns="http://www.w3.org/2000/svg">
<path fill-rule="evenodd" clip-rule="evenodd" d="M26.8097 0.705303C28.6012 -0.225133 30.7114 -0.235557 32.5115 0.677366L56.4192 12.8024C58.622 13.9196 60 16.2287 60 18.7379V47.2853C60 49.7505 58.6695 52.0264 56.526 53.1652L32.6193 65.8672C30.7605 66.8547 28.552 66.8435 26.7029 65.8374L3.41861 53.1681C1.30606 52.0186 0 49.7602 0 47.3179V18.7058C0 16.2189 1.35372 13.9267 3.5264 12.7982L26.8097 0.705303ZM31.0089 3.75041C30.1655 3.32265 29.1808 3.32742 28.3411 3.76357L5.05776 15.8565C4.0351 16.3877 3.37079 17.485 3.37079 18.7058V47.3179C3.37079 48.5166 4.01172 49.5986 5.00699 50.1401L28.2913 62.8094C29.1584 63.2812 30.1889 63.2864 31.0602 62.8235L54.9669 50.1215C55.9763 49.5852 56.6292 48.4953 56.6292 47.2853V18.7379C56.6292 17.5061 55.953 16.4011 54.9166 15.8755L31.0089 3.75041Z" fill="black"/>
</svg>
