<svg width="100" height="110" viewBox="0 0 100 110" fill="none" xmlns="http://www.w3.org/2000/svg">
<path d="M89.8254 25.3116L51.57 4.98056L54.5189 0.0656024L95.5865 20.825C98.2627 22.1778 99.95 24.9214 99.95 27.9201V79.4242C99.95 82.3702 98.3209 85.0747 95.7166 86.4519L53.1779 108.948C50.8217 110.194 47.9979 110.176 45.6575 108.901L4.19613 86.3091C1.64043 84.9165 0.05 82.2387 0.05 79.3282V31.8018H5.54561L5.86724 74.9409C5.88906 77.8675 7.49755 80.5517 10.068 81.9511L45.6539 101.324C47.9993 102.601 50.8252 102.631 53.1978 101.406L89.7425 82.5254C92.4175 81.1435 94.0976 78.3843 94.0976 75.3735V32.4201C94.0976 29.4429 92.4544 26.7088 89.8254 25.3116Z" fill="#E62479" stroke="#E62479" stroke-width="0.1"/>
</svg>
