<svg width="84" height="92" viewBox="0 0 84 92" fill="none" xmlns="http://www.w3.org/2000/svg">
<path fill-rule="evenodd" clip-rule="evenodd" d="M37.5336 0.974292C40.0416 -0.310995 42.996 -0.325394 45.5161 0.935701L78.9868 17.685C82.0709 19.2283 84 22.4181 84 25.8841V65.319C84 68.7244 82.1373 71.8683 79.1364 73.4415L45.667 90.9877C43.0647 92.3519 39.9728 92.3364 37.384 90.9465L4.78605 73.4454C1.82849 71.8575 0 68.7378 0 65.364V25.8398C0 22.4046 1.8952 19.2381 4.93696 17.6793L37.5336 0.974292ZM43.4125 5.18075C42.2317 4.58985 40.8532 4.59644 39.6775 5.19892L7.08087 21.9039C5.64913 22.6376 4.7191 24.1535 4.7191 25.8398V65.364C4.7191 67.0199 5.6164 68.5146 7.00979 69.2626L39.6078 86.7638C40.8217 87.4155 42.2645 87.4226 43.4842 86.7832L76.9537 69.237C78.3668 68.4961 79.2809 66.9905 79.2809 65.319V25.8841C79.2809 24.1825 78.3342 22.6561 76.8833 21.9301L43.4125 5.18075Z" fill="black"/>
</svg>
