<svg width="124" height="136" viewBox="0 0 124 136" fill="none" xmlns="http://www.w3.org/2000/svg">
<path d="M112.31 31.6229L63.5726 6.4812L67.5171 0.56448L119.559 26.6168C122.25 27.9641 123.95 30.7159 123.95 33.7257V99.0932C123.95 102.043 122.317 104.75 119.708 106.125L65.0264 134.958C62.6748 136.198 59.8591 136.181 57.5231 134.912L4.20475 105.944C1.64424 104.553 0.05 101.872 0.05 98.9585V39.0704H6.88847L7.29566 93.5252C7.31757 96.4553 8.9299 99.1421 11.5052 100.54L57.5195 125.516C59.8604 126.787 62.6783 126.818 65.0461 125.598L112.305 101.254C114.985 99.8736 116.669 97.1118 116.669 94.0975V38.7771C116.669 35.7645 114.987 33.0041 112.31 31.6229Z" fill="#E62479" stroke="#E62479" stroke-width="0.1"/>
</svg>
