<svg width="124" height="136" viewBox="0 0 124 136" fill="none" xmlns="http://www.w3.org/2000/svg">
<path fill-rule="evenodd" clip-rule="evenodd" d="M55.4068 1.44026C59.1091 -0.459732 63.4703 -0.481017 67.1904 1.38321L116.6 26.1431C121.152 28.4244 124 33.1397 124 38.2635V96.5585C124 101.593 121.25 106.24 116.82 108.566L67.4131 134.504C63.5718 136.52 59.0075 136.497 55.1859 134.443L7.06512 108.571C2.6992 106.224 0 101.612 0 96.6251V38.1979C0 33.1198 2.79768 28.4389 7.28789 26.1345L55.4068 1.44026ZM64.0851 7.6585C62.342 6.78499 60.3071 6.79474 58.5716 7.68536L10.4527 32.3797C8.3392 33.4643 6.96629 35.7052 6.96629 38.1979V96.6251C6.96629 99.0728 8.29088 101.282 10.3478 102.388L58.4686 128.259C60.2607 129.223 62.3904 129.233 64.191 128.288L113.598 102.35C115.684 101.255 117.034 99.0294 117.034 96.5585V38.2635C117.034 35.7481 115.636 33.4917 113.494 32.4183L64.0851 7.6585Z" fill="black"/>
</svg>
