<svg width="61" height="67" viewBox="0 0 61 67" fill="none" xmlns="http://www.w3.org/2000/svg">
<path d="M51.9799 14.2574L31.0647 3.97607L32.5251 0.568436L55.9889 12.3003C58.7165 13.6642 60.4236 16.4681 60.3828 19.5175L60.0134 47.1163C59.9745 50.0168 58.359 52.6659 55.798 54.0284L33.4337 65.9266C31.0682 67.1851 28.2278 67.1673 25.8783 65.8793L4.17855 53.9843C1.63266 52.5887 0.05 49.9163 0.05 47.013V20.2155H3.30751L3.4866 44.3798C3.50824 47.2993 5.1089 49.9782 7.6696 51.3806L25.8746 61.3509C28.2292 62.6404 31.0717 62.6713 33.4538 61.4333L52.141 51.7209C54.8062 50.3357 56.4786 47.5818 56.4786 44.5781V21.4817C56.4786 18.413 54.7338 15.6112 51.9799 14.2574Z" fill="#E62479" stroke="#E62479" stroke-width="0.1"/>
</svg>
